<svg width="24" style="filter: invert(35%) sepia(33%) saturate(96%) hue-rotate(
-19deg) brightness(100%) contrast(100%);" height="24" viewBox="0 0 24 24" fill="none" xmlns="http://www.w3.org/2000/svg">
<path d="M8.25 15.75H2.25C1.83545 15.75 1.5 15.4146 1.5 15V9C1.5 8.58545 1.83545 8.25 2.25 8.25H8.25C8.66455 8.25 9 8.58545 9 9V15C9 15.4146 8.66455 15.75 8.25 15.75ZM3 14.25H7.5V9.75H3V14.25Z" fill="#017D34"/>
<path d="M21.75 21H15.75C15.3354 21 15 20.6646 15 20.25V14.25C15 13.8354 15.3354 13.5 15.75 13.5H21.75C22.1646 13.5 22.5 13.8354 22.5 14.25V20.25C22.5 20.6646 22.1646 21 21.75 21ZM16.5 19.5H21V15H16.5V19.5Z" fill="#017D34"/>
<path d="M21.75 9H15.75C15.3354 9 15 8.66455 15 8.25V2.25C15 1.83545 15.3354 1.5 15.75 1.5H21.75C22.1646 1.5 22.5 1.83545 22.5 2.25V8.25C22.5 8.66455 22.1646 9 21.75 9ZM16.5 7.5H21V3H16.5V7.5Z" fill="#017D34"/>
<path d="M12 24C11.5854 24 11.25 23.6646 11.25 23.25V0.75C11.25 0.335449 11.5854 0 12 0C12.4146 0 12.75 0.335449 12.75 0.75V23.25C12.75 23.6646 12.4146 24 12 24Z" fill="#017D34"/>
<path d="M12 12.75H8.25C7.83545 12.75 7.5 12.4146 7.5 12C7.5 11.5854 7.83545 11.25 8.25 11.25H12C12.4146 11.25 12.75 11.5854 12.75 12C12.75 12.4146 12.4146 12.75 12 12.75Z" fill="#017D34"/>
<path d="M15.75 6H12C11.5854 6 11.25 5.66455 11.25 5.25C11.25 4.83545 11.5854 4.5 12 4.5H15.75C16.1646 4.5 16.5 4.83545 16.5 5.25C16.5 5.66455 16.1646 6 15.75 6Z" fill="#017D34"/>
<path d="M15.75 18H12C11.5854 18 11.25 17.6646 11.25 17.25C11.25 16.8354 11.5854 16.5 12 16.5H15.75C16.1646 16.5 16.5 16.8354 16.5 17.25C16.5 17.6646 16.1646 18 15.75 18Z" fill="#017D34"/>
</svg>
